<svg width="111" height="111" viewBox="0 0 111 111" fill="none" xmlns="http://www.w3.org/2000/svg">
<g filter="url(#filter0_d_176_2)">
<path d="M55.4999 90.2416C74.6872 90.2416 90.2415 74.6872 90.2415 55.5C90.2415 36.3127 74.6872 20.7584 55.4999 20.7584C36.3127 20.7584 20.7583 36.3127 20.7583 55.5C20.7583 74.6872 36.3127 90.2416 55.4999 90.2416Z" fill="#1D8233"/>
<path d="M83.2349 12H27.1812C25.5688 12 24.2617 13.3071 24.2617 14.9195C24.2617 16.5318 25.5688 17.8389 27.1812 17.8389H83.2349C84.8472 17.8389 86.1543 16.5318 86.1543 14.9195C86.1543 13.3071 84.8472 12 83.2349 12Z" fill="#1D8233"/>
<path d="M83.2349 93.1611H27.1812C25.5688 93.1611 24.2617 94.4682 24.2617 96.0805C24.2617 97.6929 25.5688 99 27.1812 99H83.2349C84.8472 99 86.1543 97.6929 86.1543 96.0805C86.1543 94.4682 84.8472 93.1611 83.2349 93.1611Z" fill="#1D8233"/>
<path d="M99 83.2349V27.1812C99 25.5688 97.6929 24.2617 96.0805 24.2617C94.4682 24.2617 93.1611 25.5688 93.1611 27.1812V83.2349C93.1611 84.8472 94.4682 86.1543 96.0805 86.1543C97.6929 86.1543 99 84.8472 99 83.2349Z" fill="#1D8233"/>
<path d="M17.8389 83.2349L17.8389 27.1812C17.8389 25.5688 16.5318 24.2617 14.9194 24.2617C13.307 24.2617 11.9999 25.5688 11.9999 27.1812L11.9999 83.2349C11.9999 84.8472 13.307 86.1543 14.9194 86.1543C16.5318 86.1543 17.8389 84.8472 17.8389 83.2349Z" fill="#1D8233"/>
</g>
<defs>
<filter id="filter0_d_176_2" x="0" y="0" width="111" height="111" filterUnits="userSpaceOnUse" color-interpolation-filters="sRGB">
<feFlood flood-opacity="0" result="BackgroundImageFix"/>
<feColorMatrix in="SourceAlpha" type="matrix" values="0 0 0 0 0 0 0 0 0 0 0 0 0 0 0 0 0 0 127 0" result="hardAlpha"/>
<feOffset/>
<feGaussianBlur stdDeviation="6"/>
<feComposite in2="hardAlpha" operator="out"/>
<feColorMatrix type="matrix" values="0 0 0 0 1 0 0 0 0 1 0 0 0 0 1 0 0 0 0.12 0"/>
<feBlend mode="normal" in2="BackgroundImageFix" result="effect1_dropShadow_176_2"/>
<feBlend mode="normal" in="SourceGraphic" in2="effect1_dropShadow_176_2" result="shape"/>
</filter>
</defs>
</svg>
